PathFileType	4	(X/Y/Z)	..\data\2014025\dynamic\2014025_C4_04.trc
DataRate	CameraRate	NumFrames	NumMarkers	Units	OrigDataRate	OrigDataStartFrame	OrigNumFrames
100.000000	100.000000	4	52	mm	100.000000	38	152
Frame#	Time	L_IAS			L_IPS			R_IPS			R_IAS			L_FTC			L_FLE			L_FME			L_FAX			L_TTC			L_FAL			L_TAM			L_FCC			L_FM1			L_FM2			L_FM5			R_FTC			R_FLE			R_FME			R_FAX			R_TTC			R_FAL			R_TAM			R_FCC			R_FM1			R_FM2			R_FM5			CV7			TV10			SXS			SJN			L_SIA			L_SRS			L_SAA			L_SAE			L_HLE			L_HME			L_UOA			L_RSP			L_UHE			L_HM2			L_HM5			R_SIA			R_SRS			R_SAA			R_SAE			R_HLE			R_HME			R_UOA			R_RSP			R_UHE			R_HM2			R_HM5			
		X1	Y1	Z1	X2	Y2	Z2	X3	Y3	Z3	X4	Y4	Z4	X5	Y5	Z5	X6	Y6	Z6	X7	Y7	Z7	X8	Y8	Z8	X9	Y9	Z9	X10	Y10	Z10	X11	Y11	Z11	X12	Y12	Z12	X13	Y13	Z13	X14	Y14	Z14	X15	Y15	Z15	X16	Y16	Z16	X17	Y17	Z17	X18	Y18	Z18	X19	Y19	Z19	X20	Y20	Z20	X21	Y21	Z21	X22	Y22	Z22	X23	Y23	Z23	X24	Y24	Z24	X25	Y25	Z25	X26	Y26	Z26	X27	Y27	Z27	X28	Y28	Z28	X29	Y29	Z29	X30	Y30	Z30	X31	Y31	Z31	X32	Y32	Z32	X33	Y33	Z33	X34	Y34	Z34	X35	Y35	Z35	X36	Y36	Z36	X37	Y37	Z37	X38	Y38	Z38	X39	Y39	Z39	X40	Y40	Z40	X41	Y41	Z41	X42	Y42	Z42	X43	Y43	Z43	X44	Y44	Z44	X45	Y45	Z45	X46	Y46	Z46	X47	Y47	Z47	X48	Y48	Z48	X49	Y49	Z49	X50	Y50	Z50	X51	Y51	Z51	X52	Y52	Z52	

39	0.38	316.4945983886719	899.0380859375002	-390.4910278320314	93.66872406005861	959.216247558594	-304.2918701171876	103.8701782226563	966.2796020507815	-187.3434600830078	330.8126220703126	908.9942016601565	-128.5199279785157	223.4981384277344	834.4240722656252	-466.4017944335939	393.2682189941407	490.3130798339845	-417.4442443847657	401.7277832031251	476.7886657714845	-261.6781921386719	372.1634521484376	434.7621154785157	-422.6503906250001	430.654022216797	399.0543518066407	-367.4373779296876	295.5749206542969	93.14485168457033	-383.9856872558594	316.9690246582032	98.55726623535159	-298.1211853027344	251.8764038085938	51.55349349975587	-330.7802734375001	441.1311340332032	36.57811737060548	-306.7375183105469	428.1581115722657	54.19366455078126	-362.8222961425782	390.662322998047	33.3678092956543	-401.891326904297	250.7353057861329	838.9307250976565	-37.31685638427735	191.2688446044922	468.6754760742189	-117.8779678344727	198.3528442382813	469.9738159179689	-284.7343444824219	146.539306640625	401.849334716797	-122.9159393310547	227.2955169677735	381.6137695312501	-182.1350250244141	93.72561645507814	76.51589965820314	-191.5960083007813	124.1496353149414	85.96364593505861	-276.7466735839844	57.2322120666504	29.21555709838868	-258.1846618652344	242.3057098388672	18.38473510742188	-249.6356048583985	238.9495697021485	39.16429138183594	-193.2340850830079	187.7517242431641	19.58638572692871	-150.2793273925782	172.7859344482422	1415.34033203125	-271.5019531250001	105.385971069336	1192.671997070313	-253.7326660156251	352.9526977539063	1197.487426757813	-282.6701965332032	287.7568054199219	1339.102905273438	-278.3669738769532	87.72072601318361	1235.105224609375	-354.4112243652344	128.6204528808594	1365.007568359375	-351.8542480468751	168.9777221679688	1370.7373046875	-431.6384582519532	214.6927490234376	1376.671508789063	-456.7357788085939	176.9358520507813	1062.845581054688	-526.4638061523439	178.1132965087891	1042.528076171875	-434.965789794922	163.18798828125	1036.437866210938	-479.8450927734376	308.8237915039063	851.8519287109377	-538.4865112304689	237.9709014892579	834.3623657226565	-569.4259643554689	338.2057189941407	773.3079223632815	-548.6785278320314	247.3444366455079	763.4552612304689	-572.7222290039064	108.6095962524414	1229.120727539063	-148.8365478515625	142.9928588867188	1361.232055664063	-174.685302734375	196.0118713378907	1373.871215820313	-114.1715621948242	246.3309020996094	1379.54296875	-102.0311965942383	266.7515563964844	1068.810791015625	5.9013090133667	245.5462188720704	1041.267456054688	-76.3004837036133	254.1648101806641	1029.226440429688	-23.20241355895996	450.7617187500001	887.2072753906252	-7.034610271453859	410.390350341797	870.0346679687502	42.33161926269532	496.9987182617189	829.317077636719	12.84927463531494	408.0190429687501	811.8779907226565	51.74648284912111	
40	0.39	331.6489868164063	897.0361938476565	-389.4372558593751	107.6465301513672	957.416198730469	-305.2436218261719	117.0295639038086	964.919616699219	-188.1757354736328	343.3598937988282	906.103454589844	-127.4740753173828	240.4676208496094	833.4788208007815	-466.7059631347657	409.0846252441407	489.3968811035157	-415.6321716308595	414.3256225585939	475.0637512207032	-259.9981384277344	389.7279357910157	432.9858703613282	-421.2918395996095	449.885955810547	400.5212402343751	-365.7031250000001	338.2763977050782	87.12635803222658	-384.7185058593751	358.1427612304688	93.6933059692383	-298.5247497558594	297.3826599121094	42.40967178344727	-331.9766845703126	486.4281005859376	40.51560592651368	-305.6814575195313	473.0277404785157	57.5456886291504	-361.9494628906251	437.5833129882814	34.31426620483399	-401.5247497558595	262.1525878906251	836.7697753906252	-36.91738510131837	195.9200286865235	468.2066040039064	-118.9100646972657	204.2513427734376	469.6758422851564	-285.6962280273438	150.088623046875	401.9575195312501	-124.4464721679688	231.1946868896485	380.6071777343751	-182.9244384765625	94.6437225341797	77.3778533935547	-194.142562866211	126.4416122436524	86.28212738037111	-278.8119201660157	58.54135131835939	30.24312782287598	-261.0000000000001	243.1960144042969	17.97758483886719	-249.7227783203126	239.3455810546876	38.96833038330079	-193.4504699707032	187.2711029052735	20.16035270690918	-151.4033660888672	185.9340515136719	1413.58935546875	-271.3814086914063	118.6352081298828	1190.7763671875	-252.9513397216797	365.9538269042969	1195.632202148438	-282.4763793945313	300.8104248046876	1337.621826171875	-278.4421386718751	100.7132568359375	1232.51318359375	-352.9677124023438	141.1815948486328	1362.571899414063	-351.1769714355469	180.9881286621094	1368.205200195313	-431.1692199707032	226.405990600586	1374.242431640625	-456.6379394531251	185.1725463867188	1060.910522460938	-526.1068725585939	187.7807159423828	1040.172241210938	-434.7081604003907	172.1649169921875	1034.775634765625	-479.1901855468751	312.9061889648438	847.8416137695315	-541.3793334960939	240.8008422851563	831.5114746093752	-570.5507202148439	340.4223937988282	768.5986328125002	-552.1122436523439	248.6707305908204	760.4273071289064	-574.1015625000001	122.4235763549805	1227.806396484375	-147.7662963867188	156.3733062744141	1359.840454101563	-174.1646423339844	209.784896850586	1372.522705078125	-113.8020172119141	260.1480407714844	1378.4423828125	-102.0774002075196	285.8383178710938	1068.054321289063	6.547325611114504	264.0918884277344	1039.64892578125	-74.92050170898439	274.0205993652344	1027.71630859375	-22.21644973754883	475.8090820312501	893.071716308594	-9.882168769836428	437.0290832519532	874.3298339843752	40.02396392822266	524.4354858398439	836.8640136718752	8.895729064941408	436.5769653320314	816.1486816406252	49.08094406127931	
41	0.4	346.8366394042969	894.5645751953127	-388.6101379394532	121.6394195556641	955.2048950195315	-306.4004821777344	130.098617553711	963.3369750976565	-189.3296813964844	355.7992248535157	902.9582519531252	-126.2248458862305	257.2653503417969	832.000915527344	-467.0374755859376	424.2077026367189	487.7778625488282	-414.119354248047	426.0598449707032	472.1890563964845	-258.4924011230469	406.671112060547	430.897430419922	-420.154510498047	468.4200439453126	401.6130981445314	-364.2278137207032	380.6951599121094	82.4094696044922	-385.560516357422	398.8089599609376	90.01932525634767	-299.0076599121094	342.7060852050782	34.61796569824219	-333.3197021484376	530.6773071289064	45.63005828857423	-304.4578247070313	516.9929809570314	62.08138275146486	-360.9277954101563	483.7622985839845	36.55177307128907	-401.0550231933595	273.1600952148438	834.451354980469	-36.62019729614259	201.1429901123047	467.5919799804689	-120.1097488403321	210.8241119384766	469.2263793945314	-286.7516174316407	154.2107238769532	401.9692687988282	-126.1515579223633	235.6256866455079	379.4507446289063	-183.8904571533203	95.62390136718751	78.27949523925783	-196.8349761962891	128.8276977539063	86.55831909179689	-281.0181274414063	59.87194824218751	31.3078842163086	-263.9343566894532	244.1258697509766	17.56768226623536	-249.8347320556641	239.7137298583985	38.78033447265626	-193.7136535644532	186.760971069336	20.76397705078125	-152.6321258544922	199.1413574218751	1411.516967773438	-271.2978515625001	131.8681945800782	1188.549194335938	-252.3273315429688	379.0353393554688	1193.272705078125	-282.1658935546876	313.9405822753907	1335.758544921875	-278.4722595214844	113.8809204101563	1229.426513671875	-351.6758117675782	153.8163604736328	1359.736694335938	-350.5940246582032	193.1002655029297	1365.215454101563	-430.7734680175782	238.2265930175782	1371.356201171875	-456.5905151367189	193.6417694091797	1058.52783203125	-525.7617797851564	197.7246093750001	1037.313720703125	-434.5067749023439	181.4136810302735	1032.70361328125	-478.5640258789064	316.9106140136719	843.369567871094	-544.1587524414064	243.6271972656251	828.3113403320315	-571.5819702148439	342.6588439941407	763.7008666992189	-555.7792358398439	250.0671691894532	757.1329345703126	-575.6506958007814	136.160873413086	1226.177368164063	-146.8280029296875	169.8152465820313	1358.149047851563	-173.6663818359375	223.5808715820313	1370.816650390625	-113.4178085327149	274.0216064453126	1376.92919921875	-102.0785598754883	304.8445739746094	1066.95654296875	7.095811843872072	282.6460266113282	1037.600463867188	-73.63989257812501	293.8815917968751	1025.888793945313	-21.40289688110352	500.343963623047	898.692810058594	-12.85402870178223	463.226043701172	878.498474121094	37.5661964416504	551.2089233398439	844.1857910156252	4.805349349975587	464.5890197753907	820.376647949219	46.25360870361329	
42	0.41	362.0524902343751	891.7272949218752	-388.0019531250001	135.6553192138672	952.6492309570315	-307.7850341796876	143.1067047119141	961.5880126953127	-190.8386993408203	368.1295776367188	899.6585083007815	-124.7962875366211	273.8467407226563	830.0101318359377	-467.3932495117189	438.806610107422	485.5592651367189	-412.8899841308595	437.0857238769532	468.3182373046876	-257.1422729492188	423.166229248047	428.5955810546876	-419.2109680175782	486.355926513672	402.3697814941407	-362.9123840332032	422.3936767578126	79.0008010864258	-386.4528808593751	438.5593566894532	87.53004455566408	-299.5223388671876	387.315643310547	28.23810577392579	-334.7581481933594	573.4841308593751	51.71041870117189	-303.0744628906251	559.6391601562501	67.61479949951173	-359.7523803710938	528.7234497070314	39.93765258789063	-400.4670715332032	283.7819824218751	832.0584106445315	-36.44915771484376	206.902328491211	466.8520507812501	-121.4243621826172	218.0821533203126	468.6066284179689	-287.8610839843751	158.8888244628907	401.906707763672	-127.9760894775391	240.5753631591797	378.1580810546876	-184.969467163086	96.64583587646487	79.22076416015626	-199.5587310791016	131.2229766845703	86.81036376953126	-283.2781982421876	61.16412353515626	32.41987991333009	-266.8710937500001	245.0680541992188	17.17523956298828	-249.9525146484376	240.0545196533204	38.61927032470704	-193.9985504150391	186.2493286132813	21.37257194519043	-153.9047393798828	212.4084777832032	1409.16455078125	-271.2776794433594	145.1029968261719	1186.0361328125	-251.8675537109376	392.2366638183595	1190.485229492188	-281.7639770507813	327.1648254394532	1333.547973632813	-278.4769897460938	127.227165222168	1225.922973632813	-350.5640258789063	166.5592651367188	1356.560913085938	-350.1363830566407	205.3650970458985	1361.832397460938	-430.4764404296876	250.2129211425782	1368.071166992188	-456.6138916015626	202.3508911132813	1055.758666992188	-525.4206542968751	207.9761505126954	1034.025634765625	-434.3552856445314	190.9393310546875	1030.282836914063	-477.9616699218751	320.8590087890626	838.4982910156252	-546.7910766601564	246.4831542968751	824.831726074219	-572.4801025390626	344.9006652832032	758.6534423828126	-559.6315307617189	251.5378417968751	753.6495971679689	-577.3218994140626	149.8399963378907	1224.278198242188	-146.0255737304688	183.3230133056641	1356.205200195313	-173.2123413085938	237.4041290283204	1368.820556640625	-113.0502853393555	287.9526367187501	1375.069580078125	-102.0637664794922	323.7343139648438	1065.588500976563	7.525227069854738	301.1611938476563	1035.222778320313	-72.49404907226564	313.7038574218751	1023.812927246094	-20.78190612792969	524.3132324218751	904.0677490234377	-15.95518493652344	488.9139404296876	882.5420532226565	34.95721817016602	577.2766113281251	851.283630371094	0.6026436686515809	492.0100402832032	824.556579589844	43.28697967529298	
